<svg xmlns="http://www.w3.org/2000/svg" viewBox="0 0 720 600" role="img" aria-label="Mosaic diamond painting of a sea turtle in blue water">
  <defs>
    <pattern id="diamonds" width="24" height="24" patternUnits="userSpaceOnUse">
      <path d="M12 0 24 12 12 24 0 12Z" fill="#ffffff" opacity=".18"/>
      <path d="M12 2 22 12 12 22 2 12Z" fill="#000000" opacity=".06"/>
    </pattern>
    <radialGradient id="water" cx="42%" cy="30%" r="80%">
      <stop stop-color="#8ef6ff"/>
      <stop offset=".48" stop-color="#1fb7d7"/>
      <stop offset="1" stop-color="#1559a7"/>
    </radialGradient>
  </defs>
  <rect width="720" height="600" rx="48" fill="url(#water)"/>
  <rect width="720" height="600" rx="48" fill="url(#diamonds)"/>
  <g opacity=".52" fill="none" stroke="#fff" stroke-width="11">
    <path d="M54 132c130 28 183-54 302-11 91 33 129 109 304 65"/>
    <path d="M18 404c152-52 246 27 351-31 97-54 175-11 315-51"/>
  </g>
  <g transform="translate(146 96)">
    <ellipse cx="260" cy="226" rx="136" ry="104" fill="#23765f"/>
    <ellipse cx="260" cy="226" rx="96" ry="72" fill="#35b783"/>
    <path d="M174 185c42 28 94 28 172 0M166 231c54 25 124 28 188 0M194 281c42-26 84-26 132 0" fill="none" stroke="#114c44" stroke-width="12" stroke-linecap="round"/>
    <ellipse cx="420" cy="204" rx="52" ry="42" fill="#35b783"/>
    <circle cx="438" cy="194" r="8" fill="#101828"/>
    <path d="M126 188c-60-43-101-52-123-27 23 42 65 65 126 70M126 270c-63 16-99 45-108 86 47 5 91-17 132-67M346 126c10-64 35-103 75-116 20 46 10 96-42 148M346 322c36 48 45 92 27 132-48-19-79-56-94-113" fill="#35b783"/>
  </g>
  <g fill="#fff" opacity=".8">
    <circle cx="125" cy="112" r="8"/><circle cx="612" cy="108" r="6"/><circle cx="88" cy="462" r="7"/><circle cx="520" cy="482" r="10"/>
  </g>
</svg>
