<svg xmlns="http://www.w3.org/2000/svg" viewBox="0 0 720 600" role="img" aria-label="Mosaic diamond painting of rainbow flowers">
  <defs>
    <pattern id="facet" width="20" height="20" patternUnits="userSpaceOnUse">
      <path d="M10 0 20 10 10 20 0 10Z" fill="#fff" opacity=".24"/>
      <path d="M10 3 17 10 10 17 3 10Z" fill="#000" opacity=".045"/>
    </pattern>
    <linearGradient id="bg" x1="0" x2="1" y1="0" y2="1">
      <stop stop-color="#fff1a3"/>
      <stop offset=".42" stop-color="#ff8abd"/>
      <stop offset="1" stop-color="#67e7ce"/>
    </linearGradient>
  </defs>
  <rect width="720" height="600" rx="48" fill="url(#bg)"/>
  <g stroke="#1e7b64" stroke-width="14" stroke-linecap="round" fill="none">
    <path d="M353 552c2-143 1-235-6-276"/>
    <path d="M236 552c48-118 89-192 125-222"/>
    <path d="M481 552c-47-104-83-170-108-198"/>
  </g>
  <g>
    <g transform="translate(232 116)">
      <circle cx="126" cy="126" r="43" fill="#ffd83d"/>
      <g fill="#ff4fa3">
        <ellipse cx="126" cy="36" rx="38" ry="72"/><ellipse cx="126" cy="216" rx="38" ry="72"/><ellipse cx="36" cy="126" rx="72" ry="38"/><ellipse cx="216" cy="126" rx="72" ry="38"/>
      </g>
      <g fill="#8d55ff" opacity=".92" transform="rotate(45 126 126)">
        <ellipse cx="126" cy="36" rx="30" ry="62"/><ellipse cx="126" cy="216" rx="30" ry="62"/><ellipse cx="36" cy="126" rx="62" ry="30"/><ellipse cx="216" cy="126" rx="62" ry="30"/>
      </g>
      <circle cx="126" cy="126" r="45" fill="#f8bd36"/>
    </g>
    <g transform="translate(70 266) scale(.76)">
      <circle cx="126" cy="126" r="43" fill="#fff36b"/>
      <g fill="#24b6d9"><ellipse cx="126" cy="36" rx="38" ry="72"/><ellipse cx="126" cy="216" rx="38" ry="72"/><ellipse cx="36" cy="126" rx="72" ry="38"/><ellipse cx="216" cy="126" rx="72" ry="38"/></g>
      <circle cx="126" cy="126" r="45" fill="#ff735d"/>
    </g>
    <g transform="translate(460 276) scale(.72)">
      <circle cx="126" cy="126" r="43" fill="#fff36b"/>
      <g fill="#49dcb1"><ellipse cx="126" cy="36" rx="38" ry="72"/><ellipse cx="126" cy="216" rx="38" ry="72"/><ellipse cx="36" cy="126" rx="72" ry="38"/><ellipse cx="216" cy="126" rx="72" ry="38"/></g>
      <circle cx="126" cy="126" r="45" fill="#8d55ff"/>
    </g>
  </g>
  <rect width="720" height="600" rx="48" fill="url(#facet)"/>
</svg>
